<svg width="28" height="28" viewBox="0 0 28 28" fill="none" xmlns="http://www.w3.org/2000/svg">
<path d="M1.89053 11.8569L9.94657 0L14.0012 6.00696L9.8892 12.016H1.97248C1.9545 12.0157 1.93694 12.0104 1.92163 12.0008C1.90632 11.9911 1.89383 11.9775 1.88545 11.9612C1.87708 11.9449 1.87313 11.9267 1.87403 11.9083C1.87492 11.89 1.88062 11.8722 1.89053 11.8569Z" fill="#7E49FC"/>
<path d="M26.1099 11.8569L18.0539 0L14.0013 6.00696L18.1112 12.016H26.028C26.0459 12.0157 26.0635 12.0104 26.0788 12.0008C26.0941 11.9911 26.1066 11.9775 26.115 11.9612C26.1234 11.9449 26.1273 11.9267 26.1264 11.9083C26.1255 11.89 26.1198 11.8722 26.1099 11.8569Z" fill="#7E49FC"/>
<path d="M26.249 13.5693C26.27 15.2268 25.9686 16.872 25.3625 18.4095C24.7563 19.9469 23.8574 21.3461 22.7179 22.5257C21.5784 23.7054 20.221 24.642 18.7245 25.2813C17.2279 25.9205 15.622 26.2497 14 26.2497C12.378 26.2497 10.7721 25.9205 9.27557 25.2813C7.77904 24.642 6.42163 23.7054 5.28213 22.5257C4.14261 21.3461 3.2437 19.9469 2.63754 18.4095C2.03138 16.872 1.73005 15.2268 1.75102 13.5693H9.53662C9.5239 14.176 9.62981 14.7791 9.84821 15.3434C10.0666 15.9077 10.393 16.4217 10.8084 16.8554C11.2237 17.289 11.7196 17.6335 12.267 17.8687C12.8143 18.104 13.4021 18.2251 13.9959 18.2251C14.5897 18.2251 15.1775 18.104 15.7249 17.8687C16.2722 17.6335 16.7681 17.289 17.1834 16.8554C17.5988 16.4217 17.9252 15.9077 18.1436 15.3434C18.362 14.7791 18.4679 14.176 18.4552 13.5693H26.249Z" fill="#0066FF"/>
</svg>
