<svg width="28" height="28" viewBox="0 0 28 28" fill="none" xmlns="http://www.w3.org/2000/svg">
<path d="M14.9723 22.5667C14.4253 22.5667 13.8907 22.726 13.4359 23.0246C12.9811 23.3232 12.6267 23.7475 12.4174 24.2439C12.208 24.7403 12.1533 25.2867 12.26 25.8138C12.3667 26.3407 12.6301 26.8248 13.0168 27.2048C13.4036 27.5848 13.8963 27.8436 14.4327 27.9484C14.9692 28.0532 15.5252 27.9994 16.0305 27.7938C16.5359 27.5882 16.9678 27.2399 17.2716 26.7931C17.5755 26.3463 17.7376 25.821 17.7376 25.2837C17.7376 24.5631 17.4463 23.872 16.9277 23.3625C16.4091 22.853 15.7057 22.5667 14.9723 22.5667Z" fill="black"/>
<path d="M25.2279 11.5506C24.681 11.5506 24.1463 11.71 23.6915 12.0085C23.2367 12.307 22.8823 12.7314 22.673 13.2278C22.4637 13.7243 22.4089 14.2706 22.5156 14.7976C22.6223 15.3247 22.8857 15.8088 23.2724 16.1887C23.6592 16.5688 24.1519 16.8275 24.6884 16.9323C25.2248 17.0371 25.7809 16.9834 26.2862 16.7777C26.7915 16.5721 27.2234 16.2238 27.5273 15.777C27.8311 15.3302 27.9933 14.8049 27.9933 14.2675C27.9933 13.547 27.702 12.8559 27.1833 12.3464C26.6647 11.8369 25.9613 11.5506 25.2279 11.5506Z" fill="black"/>
<path d="M4.51539 11.5506C3.96847 11.5506 3.43381 11.71 2.97903 12.0085C2.52424 12.307 2.16983 12.7314 1.96052 13.2278C1.75121 13.7243 1.69641 14.2706 1.80316 14.7976C1.90986 15.3247 2.17325 15.8088 2.55996 16.1887C2.94672 16.5688 3.43946 16.8275 3.97591 16.9323C4.51237 17.0371 5.06837 16.9834 5.5737 16.7777C6.07903 16.5721 6.51092 16.2238 6.81477 15.777C7.11864 15.3302 7.28081 14.8049 7.28081 14.2675C7.28081 13.547 6.98949 12.8559 6.47083 12.3464C5.95224 11.8369 5.24885 11.5506 4.51539 11.5506Z" fill="black"/>
<path d="M14.9722 5.4339C15.5194 5.43502 16.0547 5.27654 16.5102 4.97867C16.9657 4.68081 17.321 4.25689 17.5312 3.76051C17.7413 3.26414 17.7969 2.71767 17.6908 2.19028C17.5848 1.6629 17.3218 1.17824 16.9353 0.797707C16.5488 0.417221 16.056 0.157902 15.5194 0.0526335C14.9828 -0.0526912 14.4265 0.000822448 13.9208 0.206297C13.4153 0.411772 12.983 0.759974 12.6789 1.2069C12.3747 1.65382 12.2124 2.17933 12.2124 2.71695C12.2124 3.43655 12.503 4.1268 13.0204 4.63618C13.5379 5.14555 14.2398 5.43244 14.9722 5.4339Z" fill="black"/>
<path d="M21.2647 17.7751C20.2754 16.7972 19.7201 15.4744 19.7201 14.0957C19.7201 12.7169 20.2754 11.3941 21.2647 10.4163C21.6504 10.0358 21.9127 9.55173 22.0185 9.02499C22.1243 8.4982 22.0689 7.95248 21.8592 7.4566C21.6497 6.96083 21.2952 6.53708 20.8406 6.23905C20.3862 5.94096 19.8519 5.78192 19.3054 5.78192C18.7589 5.78192 18.2247 5.94096 17.7702 6.23905C17.3156 6.53708 16.9611 6.96083 16.7516 7.4566C16.5419 7.95248 16.4865 8.4982 16.5923 9.02499C16.6982 9.55173 16.9605 10.0358 17.3461 10.4163C17.843 10.8999 18.2375 11.4757 18.5067 12.11C18.7759 12.7444 18.9145 13.4249 18.9145 14.1122C18.9145 14.7994 18.7759 15.4799 18.5067 16.1143C18.2375 16.7487 17.843 17.3244 17.3461 17.8081C16.9605 18.1885 16.6982 18.6727 16.5923 19.1993C16.4865 19.7261 16.5419 20.2719 16.7516 20.7677C16.9611 21.2636 17.3156 21.6873 17.7702 21.9853C18.2247 22.2834 18.7589 22.4424 19.3054 22.4424C19.8519 22.4424 20.3862 22.2834 20.8406 21.9853C21.2952 21.6873 21.6497 21.2636 21.8592 20.7677C22.0689 20.2719 22.1243 19.7261 22.0185 19.1993C21.9127 18.6727 21.6504 18.1885 21.2647 17.8081V17.7751Z" fill="black"/>
<path d="M13.3044 19.3589C13.3015 18.6455 13.0164 17.9612 12.5096 17.4504C11.5203 16.4725 10.965 15.1497 10.965 13.771C10.965 12.3922 11.5203 11.0695 12.5096 10.0915C12.8952 9.71119 13.1575 9.22702 13.2633 8.70028C13.3692 8.17355 13.3137 7.62783 13.1041 7.13201C12.8945 6.63613 12.54 6.21249 12.0855 5.91434C11.631 5.61631 11.0967 5.45721 10.5502 5.45721C10.0037 5.45721 9.46956 5.61631 9.01501 5.91434C8.56051 6.21249 8.20603 6.63613 7.99637 7.13201C7.78682 7.62783 7.73138 8.17355 7.83716 8.70028C7.94306 9.22702 8.2053 9.71119 8.59092 10.0915C9.08702 10.5752 9.48082 11.1506 9.7495 11.7844C10.0182 12.4183 10.1565 13.0981 10.1565 13.7847C10.1565 14.4714 10.0182 15.1513 9.7495 15.7851C9.48082 16.419 9.08702 16.9943 8.59092 17.4779C8.27256 17.7956 8.03865 18.1854 7.90985 18.6129C7.78105 19.0403 7.76122 19.4924 7.85222 19.9292C7.94328 20.3659 8.14225 20.7739 8.43171 21.1173C8.72123 21.4607 9.09218 21.7287 9.51206 21.8979C9.9319 22.0671 10.3876 22.1322 10.8391 22.0875C11.2906 22.0427 11.7239 21.8894 12.1009 21.6413C12.4779 21.3931 12.7869 21.0576 13.0006 20.6643C13.2145 20.2711 13.3265 19.8322 13.3268 19.3864L13.3044 19.3589Z" fill="black"/>
</svg>
